<svg width="1141" height="160" viewBox="0 0 1141 160" fill="none" xmlns="http://www.w3.org/2000/svg">
<rect x="1" width="1140" height="160" fill="#FF0000"/>
<g opacity="0.3" clip-path="url(#clip0)">
<path d="M-1755.86 95.9999C-1527.86 79.8857 -1071.86 12.2857 -615.864 15.4285C-159.861 18.5714 172.963 111.314 524.136 111.714C875.306 112.114 1016.82 36.2857 1140 17.4285" stroke="white" stroke-width="2"/>
<path d="M-862.216 66.5714C-634.212 75.4286 -178.212 109.6 277.784 110.857C733.788 112.114 1245.34 77.0286 1417.78 72.8572C1590.23 68.6857 1195.56 86.5714 1140 90" stroke="white" stroke-width="2"/>
<path d="M-1082.05 90.2857C-854.05 83.2571 -398.05 43.3142 57.9492 55.1428C513.95 66.9714 981.54 150.8 1197.95 149.429C1414.36 148.057 1151.59 68.5142 1140 48.2857" stroke="white" stroke-width="2"/>
<path d="M-653.437 107.714C-425.434 96.0571 30.5663 41.5428 486.563 49.4285C942.566 57.3143 1495.88 145.6 1626.56 147.143C1757.25 148.686 1237.31 75.1428 1140 57.1428" stroke="white" stroke-width="2"/>
</g>
<defs>
<clipPath id="clip0">
<rect width="1140" height="160" fill="white"/>
</clipPath>
</defs>
</svg>
