<svg width="100" height="50" viewBox="0 0 100 50" fill="none" xmlns="http://www.w3.org/2000/svg">
<path d="M37.6806 0.328125H32.5683V37.1568C34.2123 45.9714 35.9157 48.759 40.6628 49.0211C45.2498 48.8106 47.1231 46.2444 49.1832 37.1568V0.328125H44.213V37.1568C43.13 39.6686 42.3408 40.3809 40.6628 40.6172C39.1541 39.7915 38.4473 39.1163 37.6806 37.1568V0.328125Z" fill="#283345"/>
<path d="M52.0939 11.2037V49.0211H56.8704V12.1924C57.5778 10.1283 58.317 9.32757 60.1994 8.48482C62.3136 9.47631 62.8533 10.3942 63.5285 12.1924V49.0211H68.7392V12.1924C69.4588 9.79847 70.2943 9.0456 72.3577 8.48482C73.9437 9.01928 74.5972 9.85887 75.3973 12.1924V49.0211H80.1738V11.2037C78.7067 4.08764 77.1965 1.34251 72.3577 0.328125C69.6366 0.542014 68.3021 1.66397 66.1338 4.77724C63.6243 0.475263 61.8079 -0.472803 57.5941 1.31683C54.104 3.60014 53.2553 6.18291 52.0939 11.2037Z" fill="#0E9EA6"/>
<path d="M83.3581 12.1924V49.0211H88.4241V12.1924C89.0775 9.72513 89.72 8.93185 91.3189 8.48482C93.3753 9.03458 94.1091 9.88077 94.7927 12.1924V49.0211H99.8587V11.2037C98.1242 4.46789 96.3673 1.9115 91.3189 0.328125C86.8429 1.86651 84.8933 3.99645 83.3581 12.1924Z" fill="#0E9EA6"/>
<path d="M1 0.575195V8.48471H21.9876C23.9359 10.272 24.3955 11.8964 24.5929 15.4055C23.9931 18.3764 23.2277 19.3485 21.4086 20.349H1V29H21.9876C23.8515 29.9688 24.5316 30.9681 24.5929 34.1906C24.3544 37.5049 23.5939 38.5604 21.9876 40.1228H1V48.5266H21.4086C25.2436 47.7956 27.2422 46.0793 29.3694 38.8869C30.0849 33.0563 29.713 29.8061 27.0535 24.0566C28.5425 21.636 29.4456 20.5372 29.3694 12.1923C28.6989 5.43239 27.1765 3.23839 22.5665 0.575195H1Z" fill="#283345" stroke="#283345"/>
</svg>
