<?xml version="1.0" encoding="iso-8859-1"?>
<!-- Generator: Adobe Illustrator 19.0.0, SVG Export Plug-In . SVG Version: 6.00 Build 0)  -->
<svg version="1.1" id="Capa_1" xmlns="http://www.w3.org/2000/svg" xmlns:xlink="http://www.w3.org/1999/xlink" x="0px" y="0px"
	 viewBox="0 0 512 512" style="enable-background:new 0 0 512 512;" xml:space="preserve">
<g>
	<g>
		<g>
			<path d="M447.52,440.5c0.344-1.083,0.5-2.198,0.479-3.313V10.667C447.999,4.771,443.228,0,437.332,0H106.666
				C83.135,0,63.999,19.135,63.999,42.667v426.667c0,23.531,19.135,42.667,42.667,42.667h330.667c3.938,0,7.552-2.167,9.406-5.635
				c1.854-3.469,1.646-7.677-0.531-10.948c-10.542-15.813-10.563-36.229-0.073-52.063C446.728,442.49,447.207,441.531,447.52,440.5z
				 M420.374,490.667H106.666c-11.76,0-21.333-9.573-21.333-21.333c0-11.76,9.573-21.333,21.333-21.333h313.708
				C415.801,461.854,415.801,476.813,420.374,490.667z M426.666,426.667h-320c-7.76,0-15.052,2.083-21.333,5.729V42.667
				c0-11.76,9.573-21.333,21.333-21.333h320V426.667z"/>
			<path d="M109.791,146.208l42.667,42.667c7.958,7.958,18.417,11.938,28.875,11.938c7.008,0,13.951-1.948,20.207-5.522
				l39.376,39.376l-33.362,33.362c-4.023-2.112-9.047-1.62-12.43,1.763l-64,64c-4.167,4.167-4.167,10.917,0,15.083l10.667,10.667
				c2.083,2.083,4.813,3.125,7.542,3.125c2.729,0,5.458-1.042,7.542-3.125l64-64c3.383-3.383,3.875-8.406,1.763-12.43l33.362-33.362
				l33.362,33.362c-2.112,4.023-1.62,9.047,1.763,12.43l64,64c2.083,2.083,4.813,3.125,7.542,3.125c2.729,0,5.458-1.042,7.542-3.125
				l10.667-10.667c4.167-4.167,4.167-10.917,0-15.083l-64-64c-3.383-3.383-8.406-3.875-12.43-1.763l-33.362-33.362l38.25-38.25
				l13.792,13.792c2.083,2.083,4.813,3.125,7.542,3.125c2.729,0,5.458-1.042,7.542-3.125l64-64c4.167-4.167,4.167-10.917,0-15.083
				l-42.667-42.667c-4.167-4.167-10.917-4.167-15.083,0l-64,64c-4.167,4.167-4.167,10.917,0,15.083l13.792,13.792l-38.25,38.25
				l-39.374-39.374c8.914-15.592,6.883-35.793-6.418-49.085l-42.667-42.667c-4.167-4.167-10.917-4.167-15.083,0
				c-4.167,4.167-4.167,10.917,0,15.083l42.667,42.667c7.604,7.604,7.604,19.979,0,27.583c-7.604,7.604-19.979,7.604-27.583,0
				l-42.667-42.667c-4.167-4.167-10.917-4.167-15.083,0C105.624,135.292,105.624,142.042,109.791,146.208z M351.999,111.083
				l27.583,27.583l-48.917,48.917L303.082,160L351.999,111.083z"/>
		</g>
	</g>
</g>
<g>
</g>
<g>
</g>
<g>
</g>
<g>
</g>
<g>
</g>
<g>
</g>
<g>
</g>
<g>
</g>
<g>
</g>
<g>
</g>
<g>
</g>
<g>
</g>
<g>
</g>
<g>
</g>
<g>
</g>
</svg>
