<svg width="84" height="83" viewBox="0 0 84 83" fill="none" xmlns="http://www.w3.org/2000/svg">
<g clip-path="url(#clip0)">
<path d="M35.661 27.7464L41.861 24.5082L48.0611 27.7464C48.3827 27.9144 48.7451 27.9896 49.1075 27.9636C49.4699 27.9376 49.8177 27.8114 50.1116 27.5993C50.4055 27.3872 50.6339 27.0976 50.7708 26.7633C50.9077 26.4289 50.9477 26.0632 50.8863 25.7075L49.7018 18.8486L54.7181 13.9912C54.9783 13.7393 55.1623 13.4201 55.2493 13.0697C55.3364 12.7193 55.323 12.3517 55.2108 12.0084C55.0985 11.6652 54.8918 11.36 54.6141 11.1273C54.3364 10.8947 53.9986 10.7439 53.6391 10.6919L46.7071 9.69127L43.6071 3.45135C43.4463 3.12768 43.1976 2.85515 42.889 2.66459C42.5804 2.47404 42.2244 2.37305 41.861 2.37305C41.4977 2.37305 41.1417 2.47404 40.8331 2.66459C40.5245 2.85515 40.2758 3.12768 40.115 3.45135L37.015 9.69127L30.083 10.6919C29.7234 10.7439 29.3857 10.8947 29.108 11.1273C28.8302 11.36 28.6236 11.6652 28.5113 12.0084C28.399 12.3517 28.3857 12.7193 28.4728 13.0697C28.5598 13.4201 28.7438 13.7393 29.004 13.9912L34.0199 18.8486L32.8355 25.7075C32.7741 26.0632 32.8141 26.4289 32.951 26.7633C33.0879 27.0976 33.3162 27.3872 33.6102 27.5993C33.9041 27.8114 34.2519 27.9376 34.6143 27.9636C34.9766 27.9896 35.3394 27.9144 35.661 27.7464Z" fill="#FFDD55"/>
<path d="M81.9435 31.0945L76.3394 26.9196L76.6241 19.9663C76.6389 19.6056 76.5518 19.2479 76.3727 18.9338C76.1935 18.6197 75.9295 18.3617 75.6104 18.189C75.2913 18.0162 74.9299 17.9356 74.5671 17.9563C74.2043 17.977 73.8546 18.0981 73.5575 18.306L67.8296 22.3108L61.261 19.8929C60.9204 19.7676 60.5512 19.7394 60.1952 19.8116C59.8393 19.8838 59.5108 20.0534 59.2469 20.3014C58.9829 20.5494 58.7941 20.8658 58.7017 21.2148C58.6093 21.5639 58.617 21.9316 58.724 22.2765L60.7877 28.9266L56.4435 34.3857C56.2182 34.6689 56.0771 35.009 56.0362 35.3676C55.9953 35.7263 56.0562 36.0891 56.212 36.4151C56.3679 36.7412 56.6125 37.0174 56.9181 37.2126C57.2237 37.4077 57.5782 37.514 57.9414 37.5195L64.9453 37.6244L68.8291 43.4161C69.0068 43.6811 69.2477 43.8985 69.5303 44.0488C69.8128 44.1992 70.1284 44.2779 70.449 44.278C70.533 44.2779 70.6169 44.2725 70.7002 44.2618C71.0605 44.2154 71.4005 44.0696 71.6818 43.8412C71.9631 43.6127 72.1744 43.3106 72.2919 42.9691L74.5568 36.3839L81.3013 34.5042C81.6511 34.4067 81.9664 34.2139 82.2117 33.9477C82.4569 33.6814 82.6223 33.3523 82.6891 32.9976C82.7559 32.6428 82.7215 32.2766 82.5897 31.9402C82.458 31.6039 82.2341 31.3109 81.9435 31.0944V31.0945Z" fill="#FFDD55"/>
<path d="M25.7806 37.5196C26.1439 37.5142 26.4983 37.4079 26.804 37.2127C27.1096 37.0176 27.3541 36.7413 27.51 36.4153C27.6658 36.0893 27.7267 35.7264 27.6858 35.3678C27.6449 35.0092 27.5038 34.669 27.2785 34.3859L22.9343 28.9268L24.998 22.2767C25.1051 21.9318 25.1128 21.564 25.0204 21.2149C24.9281 20.8659 24.7392 20.5494 24.4753 20.3014C24.2113 20.0534 23.8828 19.8838 23.5268 19.8116C23.1709 19.7394 22.8017 19.7676 22.461 19.8929L15.8924 22.3108L10.1648 18.306C9.86775 18.0981 9.51801 17.977 9.15522 17.9563C8.79242 17.9356 8.43104 18.0162 8.11195 18.189C7.79286 18.3617 7.52881 18.6197 7.34966 18.9338C7.17051 19.2479 7.08341 19.6056 7.09823 19.9663L7.38299 26.9196L1.77886 31.0945C1.48822 31.3111 1.26436 31.6041 1.13259 31.9404C1.00082 32.2767 0.966399 32.643 1.03321 32.9977C1.10003 33.3525 1.26541 33.6816 1.51067 33.9479C1.75593 34.2141 2.07128 34.4069 2.42107 34.5044L9.16552 36.384L11.4301 42.9692C11.5476 43.3108 11.7589 43.6128 12.0402 43.8413C12.3214 44.0697 12.6614 44.2154 13.0217 44.262C13.382 44.3085 13.7481 44.2539 14.0788 44.1044C14.4095 43.955 14.6915 43.7166 14.893 43.4162L18.7767 37.6246L25.7806 37.5196Z" fill="#FFDD55"/>
<path d="M65.8747 57.7894C66.7382 57.7893 67.5771 57.5043 68.2597 56.9791C68.9424 56.4539 69.4301 55.7183 69.6462 54.8879C69.4301 54.0574 68.9424 53.3218 68.2597 52.7967C67.5771 52.2715 66.7382 51.9865 65.8747 51.9864H51.5963V43.1208C51.5963 40.7091 51.5963 35.9009 45.2275 35.2869C45.0475 35.2701 44.8659 35.2909 44.6945 35.3478C44.523 35.4048 44.3654 35.4967 44.2318 35.6177C44.0982 35.7386 43.9915 35.886 43.9185 36.0503C43.8455 36.2147 43.8079 36.3923 43.8081 36.5719V45.335C43.808 45.5736 43.7414 45.8075 43.6155 46.0107L39.914 51.9864H40.0762L34.7218 55.4603V80.3092C35.5105 80.7634 36.4062 81.0021 37.3179 81.001H63.2787C64.1421 81.001 64.981 80.716 65.6637 80.1908C66.3463 79.6656 66.834 78.93 67.0501 78.0996C66.834 77.2691 66.3463 76.5336 65.6637 76.0084C64.981 75.4832 64.1421 75.1982 63.2787 75.1981H59.3846V73.2638H64.5767C65.4401 73.2638 66.279 72.9788 66.9617 72.4536C67.6443 71.9284 68.132 71.1928 68.3482 70.3624C68.132 69.5319 67.6443 68.7963 66.9617 68.2711C66.279 67.746 65.4401 67.461 64.5767 67.4609H59.3846V65.5266H65.8747C66.7382 65.5265 67.5771 65.2415 68.2597 64.7163C68.9424 64.1912 69.4301 63.4556 69.6462 62.6251C69.4301 61.7947 68.9424 61.0591 68.2597 60.5339C67.5771 60.0087 66.7382 59.7237 65.8747 59.7237H59.3846V57.7894H65.8747Z" fill="white"/>
<path d="M30.8277 51.9863H17.8473C17.3309 51.9863 16.8357 52.1901 16.4705 52.5529C16.1054 52.9156 15.9003 53.4076 15.9003 53.9206V81.0009C15.9003 81.514 16.1054 82.006 16.4705 82.3687C16.8357 82.7315 17.3309 82.9353 17.8473 82.9353H30.8277C31.3441 82.9353 31.8394 82.7315 32.2045 82.3687C32.5696 82.006 32.7748 81.514 32.7748 81.0009V53.9206C32.7748 53.4076 32.5696 52.9156 32.2045 52.5529C31.8394 52.1901 31.3441 51.9863 30.8277 51.9863ZM24.3375 79.8726C23.9524 79.8726 23.576 79.7592 23.2558 79.5466C22.9356 79.3341 22.686 79.032 22.5387 78.6785C22.3913 78.3251 22.3527 77.9361 22.4279 77.5609C22.503 77.1857 22.6884 76.841 22.9607 76.5705C23.233 76.3 23.58 76.1158 23.9577 76.0412C24.3354 75.9665 24.7269 76.0048 25.0826 76.1512C25.4384 76.2976 25.7425 76.5456 25.9564 76.8636C26.1704 77.1817 26.2846 77.5557 26.2846 77.9383C26.2846 78.4513 26.0794 78.9433 25.7143 79.3061C25.3492 79.6688 24.8539 79.8726 24.3375 79.8726Z" fill="white"/>
</g>
<defs>
<clipPath id="clip0">
<rect width="83.0745" height="82.5305" fill="white" transform="translate(0 0.375977)"/>
</clipPath>
</defs>
</svg>
