<svg width="77" height="86" viewBox="0 0 77 86" fill="none" xmlns="http://www.w3.org/2000/svg">
<path d="M59.0215 33.9387C57.4028 33.9387 55.8411 33.6952 54.371 33.2431V70.6835C54.371 73.0996 52.4092 75.058 49.9894 75.058H13.5106V79.5995C13.5106 82.0155 15.4724 83.9739 17.8923 83.9739H61.299C63.719 83.9739 65.6807 82.0153 65.6807 79.5995V32.4707C63.6575 33.4126 61.401 33.9387 59.0215 33.9387Z" fill="#CCF5FC"/>
<path d="M48.6655 6.0166H6.58258C4.16257 6.0166 2.20093 7.97518 2.20093 10.391V70.6835C2.20093 73.0996 4.16273 75.058 6.58258 75.058H49.9893C52.4092 75.058 54.371 73.0994 54.371 70.6835V33.5745" fill="#FAF7F5"/>
<path d="M59.0214 33.9386C67.7352 33.9386 74.799 26.8849 74.799 18.1837C74.799 9.48244 67.7352 2.42871 59.0214 2.42871C50.3077 2.42871 43.2438 9.48244 43.2438 18.1837C43.2438 26.8849 50.3077 33.9386 59.0214 33.9386Z" fill="#FF7D97"/>
<path d="M13.3281 19.1055H43.2438V26.1054H13.3281V19.1055Z" fill="#FFE6B4"/>
<path d="M59.0286 29.0036C58.1118 29.0036 57.3684 28.2614 57.3684 27.3462V16.0129C57.3684 15.0977 58.1118 14.3555 59.0286 14.3555C59.9453 14.3555 60.6887 15.0977 60.6887 16.0129V27.3462C60.6887 28.2614 59.9455 29.0036 59.0286 29.0036Z" fill="black"/>
<path d="M59.0215 12.3363C59.9384 12.3363 60.6816 11.5943 60.6816 10.6789C60.6816 9.76354 59.9384 9.02148 59.0215 9.02148C58.1046 9.02148 57.3613 9.76354 57.3613 10.6789C57.3613 11.5943 58.1046 12.3363 59.0215 12.3363Z" fill="black"/>
<path d="M76.4591 18.1839C76.4591 8.58258 68.6366 0.771484 59.0213 0.771484C55.0414 0.771484 51.3688 2.10969 48.4306 4.35914H6.58258C3.25114 4.35914 0.540771 7.06488 0.540771 10.391V70.6835C0.540771 74.0094 3.25114 76.7155 6.58258 76.7155H11.8504V79.5994C11.8504 82.9254 14.5608 85.6314 17.8922 85.6314H61.2988C64.6303 85.6314 67.3406 82.9255 67.3406 79.5994V56.6107C67.3406 55.6954 66.5972 54.9532 65.6805 54.9532C64.7637 54.9532 64.0203 55.6954 64.0203 56.6107V79.5994C64.0203 81.0976 62.7995 82.3166 61.2988 82.3166H17.8922C16.3916 82.3166 15.1707 81.0977 15.1707 79.5994V76.7155H49.9894C53.3208 76.7155 56.0313 74.0096 56.0313 70.6835V35.34C57.0032 35.5084 58.0021 35.5962 59.0214 35.5962C60.7581 35.5962 62.4364 35.3413 64.0205 34.8671V41.6258C64.0205 42.541 64.7639 43.2832 65.6807 43.2832C66.5974 43.2832 67.3408 42.541 67.3408 41.6258V33.4837C72.7682 30.5292 76.4591 24.7789 76.4591 18.1839ZM52.711 70.6837C52.711 72.1818 51.4901 73.4008 49.9894 73.4008H6.58258C5.08196 73.4008 3.86108 72.182 3.86108 70.6837V10.391C3.86108 8.89285 5.08196 7.67398 6.58258 7.67398H45.1266C43.0428 10.4142 41.7522 13.787 41.5991 17.4485H13.3281C12.4114 17.4485 11.668 18.1906 11.668 19.1059V26.1058C11.668 27.0211 12.4114 27.7633 13.3281 27.7633H43.2438C43.6212 27.7633 43.9691 27.6375 44.248 27.4256C46.2313 30.5754 49.1963 33.0494 52.711 34.4165V70.6837ZM41.5837 20.7633V24.4484H14.9883V20.7633H41.5837ZM59.0213 32.2812C51.237 32.2812 44.904 25.9572 44.904 18.1837C44.904 10.4104 51.237 4.08616 59.0213 4.08616C66.8057 4.08616 73.1387 10.4102 73.1387 18.1837C73.1387 25.9572 66.8057 32.2812 59.0213 32.2812Z" fill="black"/>
<path d="M65.68 50.7459C64.996 50.7459 64.3689 50.3089 64.1279 49.6716C63.8803 49.0176 64.0831 48.2485 64.6274 47.8062C65.1728 47.3631 65.9579 47.3099 66.556 47.6805C67.153 48.0505 67.4587 48.7802 67.2971 49.4646C67.1223 50.2048 66.4428 50.7459 65.68 50.7459Z" fill="black"/>
<path d="M43.2438 36.8422H13.3281C12.4114 36.8422 11.668 36.1002 11.668 35.1848C11.668 34.2695 12.4114 33.5273 13.3281 33.5273H43.2438C44.1606 33.5273 44.904 34.2695 44.904 35.1848C44.904 36.1 44.1607 36.8422 43.2438 36.8422Z" fill="black"/>
<path d="M43.2438 44.7035H13.3281C12.4114 44.7035 11.668 43.9613 11.668 43.0461C11.668 42.1307 12.4114 41.3887 13.3281 41.3887H43.2438C44.1606 41.3887 44.904 42.1307 44.904 43.0461C44.904 43.9613 44.1607 44.7035 43.2438 44.7035Z" fill="black"/>
<path d="M43.2438 52.5648H13.3281C12.4114 52.5648 11.668 51.8226 11.668 50.9074C11.668 49.9922 12.4114 49.25 13.3281 49.25H43.2438C44.1606 49.25 44.904 49.9922 44.904 50.9074C44.904 51.8228 44.1607 52.5648 43.2438 52.5648Z" fill="black"/>
<path d="M43.2438 60.4252H13.3281C12.4114 60.4252 11.668 59.683 11.668 58.7678C11.668 57.8524 12.4114 57.1104 13.3281 57.1104H43.2438C44.1606 57.1104 44.904 57.8524 44.904 58.7678C44.904 59.683 44.1607 60.4252 43.2438 60.4252Z" fill="black"/>
</svg>
