<svg width="84" height="83" viewBox="0 0 84 83" fill="none" xmlns="http://www.w3.org/2000/svg">
<g clip-path="url(#clip0)">
<path d="M74.7495 44.3C74.7495 42.3334 73.1448 40.7393 71.1653 40.7393C69.1858 40.7393 67.5811 42.3334 67.5811 44.3V57.5476C67.5811 59.1975 66.8317 60.7593 65.5414 61.7984L62.6942 64.2217C61.1475 65.4671 58.8247 64.558 58.5489 62.5992L57.7279 54.8589C57.4803 53.1003 55.9661 51.7921 54.1787 51.7921C52.1995 51.7921 50.595 53.3861 50.595 55.3523V68.3446C50.595 70.9011 51.4593 73.3836 53.0491 75.3938L54.0233 76.6257V81.2638L66.9577 81.2791V77.0132L73.2925 67.709C74.2452 66.1641 74.7495 64.3876 74.7495 62.5758V44.3Z" fill="#FFDAD5"/>
<path d="M8.62079 44.3C8.62079 42.3334 10.2255 40.7393 12.205 40.7393C14.1845 40.7393 15.7892 42.3334 15.7892 44.3V57.5476C15.7892 59.1975 16.5387 60.7593 17.8289 61.7984L20.6762 64.2217C22.2228 65.4671 24.5456 64.558 24.8215 62.5992L25.6425 54.8589C25.8901 53.1003 27.4042 51.7921 29.1916 51.7921C31.1708 51.7921 32.7754 53.3861 32.7754 55.3523V68.3446C32.7754 70.9011 31.911 73.3836 30.3212 75.3938L29.3471 76.6257V81.2638L16.4126 81.2791V77.0132L10.0778 67.709C9.12508 66.1641 8.62079 64.3876 8.62079 62.5758V44.3Z" fill="#FFDAD5"/>
<path d="M41.9604 14.0305C45.312 14.0305 48.0291 11.3313 48.0291 8.00157C48.0291 4.67189 45.312 1.97266 41.9604 1.97266C38.6088 1.97266 35.8918 4.67189 35.8918 8.00157C35.8918 11.3313 38.6088 14.0305 41.9604 14.0305Z" fill="#FA0606"/>
<path d="M63.3272 29.5852C66.6788 29.5852 69.3958 26.8859 69.3958 23.5563C69.3958 20.2266 66.6788 17.5273 63.3272 17.5273C59.9755 17.5273 57.2585 20.2266 57.2585 23.5563C57.2585 26.8859 59.9755 29.5852 63.3272 29.5852Z" fill="white"/>
<path d="M20.5937 29.5852C23.9453 29.5852 26.6624 26.8859 26.6624 23.5563C26.6624 20.2266 23.9453 17.5273 20.5937 17.5273C17.2421 17.5273 14.5251 20.2266 14.5251 23.5563C14.5251 26.8859 17.2421 29.5852 20.5937 29.5852Z" fill="#F9F6F4"/>
<path d="M41.6419 45.8781C44.9935 45.8781 47.7106 43.1789 47.7106 39.8492C47.7106 36.5196 44.9935 33.8203 41.6419 33.8203C38.2903 33.8203 35.5732 36.5196 35.5732 39.8492C35.5732 43.1789 38.2903 45.8781 41.6419 45.8781Z" fill="#FA0606"/>
<path d="M71.1652 39.127C68.2942 39.127 65.9584 41.4475 65.9584 44.2996V57.5472C65.9584 58.7165 65.434 59.8094 64.5195 60.5457C64.508 60.5549 64.4968 60.5642 64.4856 60.5738L61.6592 62.9796C61.107 63.4103 60.2696 63.0835 60.1589 62.3964L59.3415 54.6896C59.3396 54.6714 59.3374 54.6532 59.3347 54.6351C58.9769 52.095 56.7604 50.1796 54.1787 50.1796C51.3079 50.1796 48.9724 52.4998 48.9724 55.3518V68.344C48.9724 71.2484 49.9671 74.1055 51.7733 76.3893L52.4007 77.1827V81.2633C52.4007 82.1527 53.126 82.8742 54.0213 82.8752L66.9558 82.8907H66.9578C67.3877 82.8907 67.8002 82.7211 68.1044 82.4192C68.4091 82.1169 68.5803 81.7066 68.5803 81.2787V77.5068L74.6365 68.6118C74.6501 68.5918 74.6632 68.5715 74.6761 68.5508C75.7856 66.7518 76.3721 64.6856 76.3721 62.5756V44.2996C76.3721 41.4475 74.0363 39.127 71.1652 39.127ZM73.127 62.5756C73.127 64.0792 72.7123 65.5519 71.9271 66.837L65.6136 76.1098C65.4321 76.3764 65.335 76.6909 65.335 77.013V79.6651L55.6458 79.6536V76.6254C55.6458 76.2642 55.5238 75.9135 55.2991 75.6296L54.3249 74.3978C52.966 72.6795 52.2175 70.5296 52.2175 68.3444V55.3521C52.2175 54.2777 53.0973 53.4038 54.1787 53.4038C55.1433 53.4038 55.9728 54.1138 56.1177 55.059L56.9354 62.7679C57.2689 65.9558 61.3097 67.5113 63.75 65.4456L66.5815 63.0355C68.2482 61.6844 69.2037 59.6854 69.2037 57.5474V44.2996C69.2037 43.2249 70.0836 42.3508 71.1653 42.3508C72.2471 42.3508 73.127 43.2251 73.127 44.2996V62.5756Z" fill="black"/>
<path d="M32.5649 71.0479C31.732 70.7197 30.7888 71.1251 30.4588 71.9528C30.1079 72.8328 29.6323 73.6555 29.0452 74.3978L28.0711 75.6296C27.8465 75.9136 27.7243 76.2644 27.7243 76.6254V79.6536L18.0351 79.6651V77.013C18.0351 76.6911 17.9381 76.3766 17.7565 76.1098L11.4432 66.8372C10.658 65.552 10.2433 64.0794 10.2433 62.5756V44.2996C10.2433 43.2249 11.1232 42.3508 12.205 42.3508C13.2867 42.3508 14.1666 43.2251 14.1666 44.2996V57.5472C14.1666 59.6853 15.1222 61.6844 16.7888 63.0353L19.6205 65.4455C22.0563 67.5221 26.1024 65.9476 26.4351 62.7677L27.2528 55.0589C27.3977 54.1137 28.227 53.4036 29.1918 53.4036C30.2732 53.4036 31.1529 54.2776 31.1529 55.3519V58.3975C31.1529 59.2878 31.8794 60.0094 32.7755 60.0094C33.6716 60.0094 34.398 59.2878 34.398 58.3975V55.3519C34.398 52.5 32.0625 50.1797 29.1918 50.1797C26.61 50.1797 24.3934 52.0952 24.0358 54.6353C24.0332 54.6533 24.0309 54.6715 24.029 54.6898L23.2115 62.3965C23.1009 63.0835 22.2636 63.4104 21.7113 62.9797L18.8847 60.5739C18.8735 60.5644 18.8621 60.5551 18.8508 60.5459C17.9365 59.8097 17.4121 58.7167 17.4121 57.5474V44.2996C17.4121 41.4473 15.0762 39.127 12.2053 39.127C9.33436 39.127 6.99854 41.4475 6.99854 44.2996V62.5756C6.99854 64.6854 7.58509 66.7518 8.69459 68.5508C8.7074 68.5715 8.72055 68.5918 8.73418 68.6118L14.79 77.5068V81.2787C14.79 81.7066 14.9612 82.1169 15.2659 82.4192C15.5701 82.7211 15.9826 82.8907 16.4126 82.8907H16.4145L29.3488 82.8755C30.2443 82.8746 30.9694 82.1531 30.9694 81.2636V77.183L31.597 76.3896C32.3776 75.4026 33.0098 74.3094 33.4759 73.1401C33.8058 72.3124 33.3979 71.3756 32.5649 71.0479Z" fill="black"/>
<path d="M55.6358 23.5559C55.6358 27.7691 59.0862 31.1967 63.3272 31.1967C67.5682 31.1967 71.0184 27.769 71.0184 23.5559C71.0184 19.3428 67.568 15.915 63.3272 15.915C59.0862 15.915 55.6358 19.3428 55.6358 23.5559ZM67.7734 23.5559C67.7734 25.9915 65.779 27.9729 63.3273 27.9729C60.8757 27.9729 58.8811 25.9915 58.8811 23.5559C58.8811 21.1203 60.8757 19.1389 63.3273 19.1389C65.779 19.1389 67.7734 21.1204 67.7734 23.5559Z" fill="black"/>
<path d="M12.9025 23.5559C12.9025 27.7691 16.3529 31.1967 20.5937 31.1967C24.8346 31.1967 28.2849 27.769 28.2849 23.5559C28.2849 19.3428 24.8346 15.915 20.5937 15.915C16.3529 15.915 12.9025 19.3428 12.9025 23.5559ZM20.5937 19.1389C23.0454 19.1389 25.0398 21.1203 25.0398 23.5559C25.0398 25.9915 23.0454 27.9729 20.5937 27.9729C18.1421 27.9729 16.1476 25.9915 16.1476 23.5559C16.1476 21.1203 18.1421 19.1389 20.5937 19.1389Z" fill="black"/>
<path d="M41.9604 15.6422C46.2014 15.6422 49.6516 12.2144 49.6516 8.00119C49.6518 3.78811 46.2014 0.360352 41.9604 0.360352C37.7194 0.360352 34.2692 3.78811 34.2692 8.00119C34.2692 12.2146 37.7195 15.6422 41.9604 15.6422ZM41.9604 3.5842C44.4121 3.5842 46.4065 5.56557 46.4065 8.00119C46.4065 10.4368 44.4121 12.4183 41.9604 12.4183C39.5087 12.4183 37.5143 10.4368 37.5143 8.00119C37.5143 5.56557 39.5087 3.5842 41.9604 3.5842Z" fill="black"/>
<path d="M41.6419 32.209C37.4009 32.209 33.9507 35.6367 33.9507 39.8498C33.9507 44.0629 37.401 47.4907 41.6419 47.4907C45.8828 47.4907 49.3331 44.0629 49.3331 39.8498C49.3331 35.6367 45.8829 32.209 41.6419 32.209ZM41.6419 44.2668C39.1902 44.2668 37.1958 42.2854 37.1958 39.8498C37.1958 37.4142 39.1902 35.4328 41.6419 35.4328C44.0936 35.4328 46.088 37.4142 46.088 39.8498C46.088 42.2854 44.0936 44.2668 41.6419 44.2668Z" fill="black"/>
<path d="M8.14001 22.467C9.0183 22.567 9.83622 21.9222 9.93698 21.0495C9.94185 21.0079 10.4666 16.8621 14.7271 14.1911C15.4848 13.7159 15.7115 12.7204 15.2333 11.9676C14.755 11.2147 13.7531 10.9898 12.9952 11.4647C7.43453 14.9508 6.73991 20.4495 6.71298 20.6818C6.61108 21.5663 7.24988 22.3655 8.14001 22.467Z" fill="black"/>
<path d="M70.6182 31.8046C69.9274 32.491 68.9997 33.0055 68.1098 33.3843C67.299 33.7333 66.9075 34.6912 67.2563 35.5007C67.6019 36.3086 68.575 36.6931 69.3867 36.3486C70.6169 35.8268 71.784 35.1173 72.771 34.2164C73.7764 33.2987 74.5983 32.1795 75.2311 30.9809C75.6402 30.2041 75.3274 29.2117 74.5464 28.8048C73.7668 28.3978 72.7626 28.706 72.356 29.485C71.8351 30.4715 71.2267 31.2275 70.6182 31.8046Z" fill="black"/>
<path d="M19.8438 33.906C19.4563 33.1057 18.4896 32.7669 17.6826 33.1498C16.8739 33.5333 16.5312 34.4955 16.9172 35.2989C17.0696 35.6159 20.7589 43.1022 30.3712 46.385C31.2078 46.6707 32.1458 46.2151 32.4332 45.3847C32.7244 44.5428 32.2737 43.6257 31.4262 43.3362C23.1684 40.516 19.8907 34.0014 19.8438 33.906Z" fill="black"/>
<path d="M53.1249 4.92938C53.1967 4.94243 60.3642 6.31418 65.3149 13.5638C65.8111 14.2905 66.8365 14.486 67.5686 13.9927C68.3101 13.4929 68.5036 12.4906 68.0004 11.7538C62.2939 3.3974 54.0549 1.82078 53.707 1.75776C52.8255 1.5985 51.9805 2.17863 51.8197 3.05439C51.6591 3.93031 52.2433 4.76979 53.1249 4.92938Z" fill="black"/>
<path d="M34.2731 64.7257C33.9329 63.9144 32.9725 63.5187 32.1541 63.8536C31.3366 64.1883 30.9397 65.1493 31.2763 65.9588C31.6139 66.7711 32.5792 67.1657 33.3953 66.8309C34.215 66.4945 34.6085 65.5384 34.2731 64.7257Z" fill="black"/>
</g>
<defs>
<clipPath id="clip0">
<rect width="83.0745" height="82.5305" fill="white" transform="translate(0 0.360352)"/>
</clipPath>
</defs>
</svg>
