<svg width="84" height="84" viewBox="0 0 84 84" fill="none" xmlns="http://www.w3.org/2000/svg">
<path d="M79.1414 26.5638H55.8157V4.6416C61.7877 4.64046 67.5334 6.91196 71.8717 10.9892C76.2101 15.0665 78.8115 20.6399 79.1414 26.5638Z" fill="#FA0606"/>
<path d="M79.1414 26.5638H73.9493C73.6677 21.5332 71.7462 16.7303 68.4749 12.8803C65.2036 9.03024 60.7602 6.34214 55.8157 5.22189V4.6416C61.7877 4.64046 67.5334 6.91196 71.8717 10.9892C76.2101 15.0665 78.8115 20.6399 79.1414 26.5638Z" fill="#CD2A00"/>
<path d="M73.9493 31.7217C73.9753 32.1472 73.9883 32.5857 73.9883 33.0112C73.9883 39.1673 71.5266 45.0713 67.1449 49.4244C62.7632 53.7774 56.8202 56.2229 50.6235 56.2229C48.8753 56.229 47.1326 56.0299 45.4314 55.6297C40.8326 54.6071 36.6601 52.2082 33.4764 48.7565L50.6235 31.7217H73.9493Z" fill="white"/>
<path d="M50.6235 9.79896V31.7211L33.4764 48.7559C30.6916 45.7701 28.7472 42.1083 27.8388 38.139C26.9305 34.1697 27.0902 30.0328 28.302 26.1442C29.5137 22.2557 31.7348 18.7527 34.7417 15.9876C37.7486 13.2224 41.4355 11.2926 45.4314 10.3922C47.1325 9.99198 48.8753 9.79287 50.6235 9.79896Z" fill="white"/>
<path d="M45.4314 55.63V79.4348H3.8941V14.9579H14.2784V4.6416H45.4314V10.3929C41.4354 11.2934 37.7486 13.2232 34.7417 15.9884C31.7347 18.7535 29.5137 22.2565 28.302 26.145C27.0902 30.0336 26.9305 34.1705 27.8388 38.1398C28.7472 42.1091 30.6916 45.7708 33.4764 48.7567C36.6601 52.2085 40.8326 54.6074 45.4314 55.63ZM35.0471 63.9604C35.0471 61.2355 33.962 58.6212 32.0285 56.6884C30.0951 54.7555 27.4705 53.6611 24.7276 53.6441H24.6627C21.9086 53.6355 19.2639 54.7142 17.3104 56.6429C15.3569 58.5715 14.2546 61.1921 14.246 63.9281C14.2374 66.6642 15.3232 69.2916 17.2645 71.2323C19.2059 73.173 21.8437 74.2681 24.5978 74.2767H24.6627C27.4168 74.2767 30.0581 73.1898 32.0056 71.2551C33.953 69.3204 35.0471 66.6964 35.0471 63.9604Z" fill="#FA0606"/>
<path d="M24.7276 53.6436H24.6627C21.9086 53.6351 19.2639 54.7138 17.3104 56.6424C15.3569 58.571 14.2546 61.1916 14.246 63.9277C14.2374 66.6637 15.3232 69.2911 17.2645 71.2318C19.2059 73.1726 21.8437 74.2677 24.5978 74.2762H24.6627C27.4168 74.2848 30.0615 73.2061 32.0151 71.2774C33.9686 69.3488 35.0709 66.7282 35.0795 63.9922C35.0881 61.2561 34.0023 58.6287 32.0609 56.688C30.1196 54.7473 27.4817 53.6522 24.7276 53.6436Z" fill="white"/>
<path d="M14.2784 4.6416V14.9579H3.8941L14.2784 4.6416Z" fill="#FF3051"/>
<path d="M35.0471 63.9599C35.0471 66.6959 33.953 69.3199 32.0056 71.2546C30.0581 73.1893 27.4168 74.2762 24.6628 74.2762H24.5978C23.7528 74.2683 22.9118 74.1601 22.0926 73.9538C24.3207 73.3753 26.2922 72.0778 27.6973 70.2652C29.1025 68.4527 29.8618 66.2277 29.8558 63.9399C29.8499 61.6521 29.0791 59.4311 27.6645 57.6257C26.2499 55.8204 24.2717 54.533 22.0407 53.9659C22.8983 53.7533 23.7788 53.645 24.6628 53.6436H24.7277C27.4705 53.6606 30.0951 54.755 32.0286 56.6878C33.962 58.6207 35.0471 61.2349 35.0471 63.9599Z" fill="white"/>
<path d="M75.2863 31.7214C75.2863 31.3794 75.1495 31.0514 74.9061 30.8096C74.6627 30.5677 74.3325 30.4319 73.9882 30.4319H51.9216V9.79926C51.9216 9.45725 51.7848 9.12925 51.5414 8.88741C51.298 8.64558 50.9678 8.50972 50.6235 8.50972C49.3185 8.51667 48.0162 8.6288 46.7294 8.845V4.6411C46.7294 4.29909 46.5927 3.9711 46.3492 3.72926C46.1058 3.48742 45.7756 3.35156 45.4314 3.35156H14.2784C13.9343 3.35411 13.6043 3.488 13.3568 3.72553L2.9725 14.0418C2.73341 14.2877 2.59863 14.6155 2.59607 14.9574V79.4343C2.59607 79.7764 2.73283 80.1044 2.97626 80.3462C3.21969 80.588 3.54985 80.7239 3.89411 80.7239H45.4314C45.7756 80.7239 46.1058 80.588 46.3492 80.3462C46.5927 80.1044 46.7294 79.7764 46.7294 79.4343V57.1769C48.0162 57.3931 49.3185 57.5052 50.6235 57.5122C57.1627 57.5064 63.4324 54.9231 68.0563 50.3295C72.6802 45.7359 75.2804 39.5073 75.2863 33.011C75.2863 32.6628 75.2733 32.3146 75.2603 31.9664C75.2761 31.8857 75.2847 31.8037 75.2863 31.7214ZM49.3255 11.1275V31.1927L33.5413 46.8735C30.9673 43.7474 29.3131 39.9753 28.7614 35.9739C28.2098 31.9724 28.7821 27.8974 30.4153 24.1988C32.0485 20.5002 34.6789 17.3221 38.016 15.0154C41.3531 12.7086 45.267 11.3631 49.3255 11.1275ZM12.9804 7.74889V13.6679H7.02238L12.9804 7.74889ZM44.1333 78.1448H5.19215V16.247H14.2784C14.6227 16.247 14.9528 16.1111 15.1963 15.8693C15.4397 15.6274 15.5765 15.2994 15.5765 14.9574V5.93064H44.1333V9.3995C38.915 10.8072 34.308 13.8819 31.0234 18.1492C27.7388 22.4165 25.9592 27.6391 25.9592 33.011C25.9592 38.3829 27.7388 43.6054 31.0234 47.8727C34.308 52.14 38.915 55.2147 44.1333 56.6224V78.1448ZM50.6235 54.9331C44.9032 54.9333 39.4083 52.7174 35.3067 48.7562L51.1557 33.011H72.6902C72.682 38.8226 70.3544 44.3938 66.2179 48.5032C62.0814 52.6126 56.4734 54.9249 50.6235 54.9331Z" fill="black"/>
<path d="M55.8157 27.8528H79.1804V27.8451C79.3532 27.8412 79.5235 27.8028 79.681 27.7322C79.8386 27.6616 79.9803 27.5603 80.0976 27.4342C80.215 27.3081 80.3056 27.1599 80.3641 26.9983C80.4226 26.8367 80.4478 26.6651 80.4382 26.4936C80.0937 20.239 77.3489 14.3535 72.7685 10.0485C68.1882 5.7436 62.121 3.34684 55.8157 3.35157C55.4714 3.35157 55.1413 3.48743 54.8978 3.72927C54.6544 3.9711 54.5176 4.2991 54.5176 4.64111V26.5633C54.5176 26.9053 54.6544 27.2333 54.8978 27.4751C55.1413 27.7169 55.4714 27.8528 55.8157 27.8528ZM77.7292 25.2737H57.1137V5.96804C62.2856 6.26673 67.1864 8.36534 70.9562 11.8956C74.726 15.4259 77.1239 20.1623 77.7292 25.2737Z" fill="black"/>
<path d="M24.6627 52.3545C22.3522 52.3545 20.0935 53.0352 18.1723 54.3104C16.2512 55.5857 14.7538 57.3983 13.8696 59.519C12.9854 61.6397 12.7541 63.9732 13.2048 66.2245C13.6556 68.4758 14.7682 70.5438 16.402 72.1669C18.0358 73.79 20.1174 74.8954 22.3836 75.3432C24.6497 75.791 26.9987 75.5612 29.1334 74.6828C31.268 73.8043 33.0926 72.3168 34.3762 70.4082C35.6599 68.4996 36.3451 66.2558 36.3451 63.9603C36.3403 60.8837 35.1079 57.9345 32.9181 55.759C30.7282 53.5836 27.7596 52.3593 24.6627 52.3545ZM24.6627 72.9871C22.8656 72.9871 21.1089 72.4577 19.6146 71.4658C18.1204 70.474 16.9558 69.0642 16.2681 67.4147C15.5804 65.7653 15.4004 63.9503 15.751 62.1993C16.1016 60.4483 16.967 58.8399 18.2377 57.5774C19.5085 56.315 21.1275 55.4553 22.8901 55.107C24.6526 54.7587 26.4796 54.9375 28.1399 55.6207C29.8002 56.3039 31.2193 57.4609 32.2177 58.9453C33.2161 60.4298 33.749 62.175 33.749 63.9603C33.7462 66.3536 32.7881 68.648 31.0846 70.3402C29.3812 72.0325 27.0717 72.9844 24.6627 72.9871Z" fill="black"/>
<path d="M28.5569 66.539C28.5527 67.3367 28.3013 68.1137 27.8368 68.7644C27.3722 69.4151 26.7172 69.9078 25.9608 70.1755V71.6971H23.3647V70.1755C22.6083 69.9078 21.9532 69.4151 21.4887 68.7644C21.0242 68.1137 20.7728 67.3367 20.7686 66.539H23.3647C23.3647 66.794 23.4408 67.0433 23.5835 67.2554C23.7261 67.4675 23.9288 67.6327 24.166 67.7303C24.4032 67.8279 24.6642 67.8535 24.916 67.8037C25.1678 67.754 25.3991 67.6312 25.5806 67.4508C25.7621 67.2705 25.8857 67.0407 25.9358 66.7905C25.9859 66.5404 25.9602 66.2811 25.862 66.0455C25.7637 65.8098 25.5973 65.6084 25.3839 65.4668C25.1704 65.3251 24.9195 65.2494 24.6627 65.2494C23.7495 65.2424 22.8678 64.9167 22.1718 64.3293C21.4758 63.7419 21.0097 62.9302 20.8551 62.036C20.7004 61.1419 20.867 60.2221 21.3258 59.4376C21.7845 58.6531 22.5062 58.0538 23.3647 57.7443V56.2227H25.9608V57.7443C26.7172 58.012 27.3722 58.5047 27.8368 59.1554C28.3013 59.806 28.5527 60.5831 28.5569 61.3808H25.9608C25.9608 61.1258 25.8846 60.8764 25.742 60.6644C25.5994 60.4523 25.3967 60.287 25.1595 60.1894C24.9223 60.0918 24.6613 60.0663 24.4095 60.116C24.1577 60.1658 23.9264 60.2886 23.7449 60.469C23.5633 60.6493 23.4397 60.8791 23.3896 61.1292C23.3396 61.3794 23.3653 61.6387 23.4635 61.8743C23.5617 62.1099 23.7281 62.3113 23.9416 62.453C24.155 62.5947 24.406 62.6703 24.6627 62.6703C25.6946 62.6734 26.6833 63.082 27.4129 63.8068C28.1425 64.5317 28.5538 65.5139 28.5569 66.539Z" fill="black"/>
<path d="M10.3843 21.4053H23.3647V23.9844H10.3843V21.4053Z" fill="black"/>
<path d="M10.3843 29.1426H23.3647V31.7217H10.3843V29.1426Z" fill="black"/>
<path d="M10.3843 36.8799H23.3647V39.459H10.3843V36.8799Z" fill="black"/>
<path d="M10.3843 44.6172H23.3647V47.1963H10.3843V44.6172Z" fill="black"/>
<path d="M51.9216 62.6699H57.1137V65.249H51.9216V62.6699Z" fill="black"/>
<path d="M59.7098 62.6699H80.4785V65.249H59.7098V62.6699Z" fill="black"/>
<path d="M51.9216 70.4072H57.1137V72.9863H51.9216V70.4072Z" fill="black"/>
<path d="M59.7098 70.4072H80.4785V72.9863H59.7098V70.4072Z" fill="black"/>
<path d="M51.9216 78.1445H57.1137V80.7236H51.9216V78.1445Z" fill="black"/>
<path d="M59.7098 78.1445H80.4785V80.7236H59.7098V78.1445Z" fill="black"/>
</svg>
