<svg width="84" height="83" viewBox="0 0 84 83" fill="none" xmlns="http://www.w3.org/2000/svg">
<g clip-path="url(#clip0)">
<path d="M81.6906 0.355469C81.6905 0.355469 81.6901 0.355469 81.69 0.355469H1.38458C0.620117 0.355297 0.000173072 0.970837 0 1.73029C0 1.73046 0 1.7308 0 1.73098V29.2411H2.76915V3.10648H80.3054V33.3677H31.8452V36.1187H81.69C82.4544 36.1188 83.0744 35.5033 83.0745 34.7439C83.0745 34.7437 83.0745 34.7433 83.0745 34.7432V1.73098C83.0747 0.971524 82.4551 0.355641 81.6906 0.355469Z" fill="black"/>
<path d="M73.3825 7.2334H45.691V9.98441H73.3825V7.2334Z" fill="black"/>
<path d="M77.5362 15.4863H49.8447V18.2373H77.5362V15.4863Z" fill="black"/>
<path d="M71.9979 23.7393H44.3064V26.4903H71.9979V23.7393Z" fill="black"/>
<path d="M44.196 12.2147C43.2481 9.9511 40.6326 8.87958 38.3543 9.82129C38.3154 9.83745 38.2766 9.85396 38.2382 9.87115L27.0113 15.6569C27.4541 14.7453 27.6865 13.747 27.6915 12.735C27.6915 8.93667 24.592 5.85742 20.7686 5.85742C16.9453 5.85742 13.8458 8.93667 13.8458 12.735C13.8509 14.2279 14.3499 15.6779 15.2658 16.8615H15.2082C11.2781 16.8876 7.76972 19.3149 6.3822 22.9681L2.68608 35.6243C1.80618 37.8949 2.94568 40.4444 5.23145 41.3185C6.27368 41.7171 7.42894 41.7104 8.46651 41.2996C9.65863 40.8225 10.5863 39.8589 11.0133 38.6547L12.4612 34.0768V53.9844C11.2698 53.0746 9.81024 52.5789 8.30745 52.5736C4.48983 52.5679 1.39029 55.6379 1.38458 59.4307C1.38181 61.2882 2.1364 63.0674 3.4765 64.3628C1.34979 65.4422 0.00830749 67.6114 3.62493e-08 69.9838V81.5103C-0.000173036 82.2698 0.619425 82.8857 1.38388 82.8859C1.38406 82.8859 1.3844 82.8859 1.38458 82.8859H15.2303C15.9948 82.886 16.6147 82.2705 16.6149 81.511C16.6149 81.5109 16.6149 81.5105 16.6149 81.5103V69.9838C16.6082 68.0342 15.6964 66.1968 14.1441 65.0043H24.6242C23.0717 66.1968 22.16 68.0342 22.1534 69.9838V81.5103C22.1532 82.2698 22.7728 82.8857 23.5373 82.8859C23.5374 82.8859 23.5378 82.8859 23.538 82.8859H37.3837C38.1482 82.886 38.7681 82.2705 38.7683 81.511C38.7683 81.5109 38.7683 81.5105 38.7683 81.5103V69.9838C38.76 67.6114 37.4185 65.4422 35.2918 64.3628C38.0255 61.712 38.0786 57.3614 35.4103 54.6456C33.7672 52.9732 31.3811 52.245 29.0763 52.7127V24.5745L41.7868 18.0179C44.0652 17.0764 45.1437 14.4781 44.196 12.2147ZM20.7686 8.60844C23.0627 8.60844 24.9224 10.4559 24.9224 12.735C24.9224 15.014 23.0627 16.8615 20.7686 16.8615C18.4756 16.8591 16.6173 15.013 16.6149 12.735C16.6149 10.4559 18.4746 8.60844 20.7686 8.60844ZM8.30745 55.3246C10.6015 55.3246 12.4612 57.1721 12.4612 59.4512C12.4612 61.7302 10.6015 63.5777 8.30745 63.5777C6.01338 63.5777 4.15373 61.7302 4.15373 59.4512C4.15615 57.1731 6.01442 55.3272 8.30745 55.3246ZM13.8458 80.1348H2.76915V69.9838C2.77192 67.9943 4.39482 66.3822 6.3976 66.3798H10.2173C12.2199 66.3822 13.843 67.9943 13.8458 69.9838V80.1348ZM35.999 69.9838V80.1348H24.9224V69.9838C24.9251 67.9943 26.548 66.3822 28.5508 66.3798H32.3705C34.3733 66.3822 35.9962 67.9943 35.999 69.9838ZM30.4607 55.3246C32.7537 55.327 34.612 57.1731 34.6144 59.4512C34.6144 61.7302 32.7547 63.5777 30.4607 63.5777C28.1666 63.5777 26.3069 61.7302 26.3069 59.4512C26.3069 57.1721 28.1666 55.3246 30.4607 55.3246ZM41.6624 14.5094C41.477 14.9819 41.0965 15.3527 40.6172 15.5276L27.0541 22.5179C26.5951 22.7545 26.3069 23.2254 26.3069 23.739V53.9844C23.7135 55.8895 22.815 59.3373 24.1525 62.2532H22.1532V38.8696H19.3841V62.2532H14.6156C15.0095 61.3884 15.217 60.4513 15.2251 59.5022H15.2303V25.1145C15.2302 24.3547 14.61 23.739 13.8454 23.7392C13.2409 23.7394 12.7062 24.1292 12.5249 24.7022L8.39053 37.7721C8.07727 38.6304 7.12278 39.074 6.2588 38.7627C6.19823 38.7408 6.13886 38.7155 6.08106 38.6868C5.28233 38.2768 4.94328 37.3194 5.30777 36.5027L9.00372 23.8465C10.0004 21.3035 12.461 19.6244 15.208 19.6125H25.0117C25.2335 19.6128 25.4523 19.5597 25.6493 19.4581L39.4106 12.3617C40.2361 12.0195 41.1877 12.3696 41.5895 13.1636C41.8026 13.5821 41.8291 14.0704 41.6624 14.5094Z" fill="white"/>
<path d="M57.4448 64.3632C60.1833 61.7126 60.2404 57.3583 57.5724 54.6377C54.9043 51.9171 50.5212 51.8604 47.7827 54.511C45.0442 57.1616 44.9871 61.5159 47.6552 64.2365C47.6972 64.2793 47.7398 64.3216 47.7829 64.3632C45.6564 65.4427 44.3147 67.6118 44.3064 69.9843V81.5108C44.3062 82.2703 44.9258 82.8862 45.6903 82.8863H59.5367C60.3012 82.8865 60.9211 82.271 60.9213 81.5115V69.9843C60.913 67.6118 59.5715 65.4427 57.4448 64.3632ZM52.6138 55.3251C54.9079 55.3251 56.7676 57.1726 56.7676 59.4516C56.7676 61.7307 54.9079 63.5782 52.6138 63.5782C50.3198 63.5782 48.4601 61.7307 48.4601 59.4516C48.4625 57.1736 50.3208 55.3277 52.6138 55.3251ZM58.1522 80.1353H47.0755V69.9843C47.0783 67.9948 48.7012 66.3827 50.704 66.3802H54.5237C56.5263 66.3827 58.1494 67.9948 58.1522 69.9843V80.1353Z" fill="white"/>
<path d="M79.598 64.3632C82.3365 61.7126 82.3936 57.3583 79.7256 54.6377C77.0575 51.9171 72.6744 51.8604 69.9359 54.511C67.1974 57.1616 67.1403 61.5159 69.8084 64.2365C69.8504 64.2793 69.893 64.3216 69.9361 64.3632C67.8096 65.4427 66.4679 67.6118 66.4596 69.9842V81.5108C66.4594 82.2703 67.079 82.8862 67.8435 82.8863C67.8437 82.8863 67.844 82.8863 67.8442 82.8863H81.6899C82.4544 82.8865 83.0743 82.271 83.0745 81.5115C83.0745 81.5113 83.0745 81.511 83.0745 81.5108V69.9842C83.0662 67.6118 81.7247 65.4427 79.598 64.3632ZM74.767 55.3251C77.0611 55.3251 78.9208 57.1726 78.9208 59.4516C78.9208 61.7307 77.0611 63.5782 74.767 63.5782C72.473 63.5782 70.6133 61.7307 70.6133 59.4516C70.6157 57.1736 72.474 55.3277 74.767 55.3251ZM80.3053 80.1353H69.2287V69.9842C69.2315 67.9948 70.8544 66.3827 72.8572 66.3802H76.6769C78.6795 66.3827 80.3026 67.9948 80.3053 69.9842V80.1353Z" fill="white"/>
</g>
<defs>
<clipPath id="clip0">
<rect width="83.0745" height="82.5305" fill="white" transform="translate(0 0.355469)"/>
</clipPath>
</defs>
</svg>
