<svg width="85" height="86" viewBox="0 0 85 86" fill="none" xmlns="http://www.w3.org/2000/svg">
<path d="M29.2188 31.2691C29.2188 23.9462 35.1649 18.0098 42.5 18.0098C49.8351 18.0098 55.7812 23.9462 55.7812 31.2691" fill="#EFEFEF"/>
<path d="M42.5 18.0098C41.8228 18.0098 41.1578 18.0611 40.5078 18.1586C46.8978 19.1182 51.7969 24.6395 51.7969 31.2691H55.7812C55.7812 23.9765 49.8351 18.0098 42.5 18.0098Z" fill="#BFBCCC"/>
<path d="M34.5312 36.5732H29.2188V45.8548H34.5312V36.5732Z" fill="#EFEFEF"/>
<path d="M45.1562 36.5732H39.8438V45.8548H45.1562V36.5732Z" fill="#EFEFEF"/>
<path d="M55.7812 36.5732H50.4688V45.8548H55.7812V36.5732Z" fill="#EFEFEF"/>
<path d="M59.7656 31.2686H25.2344V36.5723H59.7656V31.2686Z" fill="#BFBCCC"/>
<path d="M81.0156 61.7656H75.7031V79.0028H81.0156V61.7656Z" fill="#BFBCCC"/>
<path d="M70.3906 61.7656H65.0781V79.0028H70.3906V61.7656Z" fill="#BFBCCC"/>
<path d="M65.0781 51.1582H19.9219V79.0029H65.0781V51.1582Z" fill="#EFEFEF"/>
<path d="M38.5156 55.2188H35.8594V57.7049H38.5156V55.2188Z" fill="white"/>
<path d="M43.8281 55.2188H41.1719V57.7049H43.8281V55.2188Z" fill="white"/>
<path d="M49.1406 55.2188H46.4844V57.7049H49.1406V55.2188Z" fill="white"/>
<path d="M46.4844 67.0693H38.5156V79.0028H46.4844V67.0693Z" fill="#BFBCCC"/>
<path d="M65.0781 51.1582H61.0938V79.0029H65.0781V51.1582Z" fill="#BFBCCC"/>
<path d="M38.5156 67.0693H33.2031V79.0028H38.5156V67.0693Z" fill="#EFEFEF"/>
<path d="M51.7969 67.0693H46.4844V79.0028H51.7969V67.0693Z" fill="#EFEFEF"/>
<path d="M9.29688 61.7656H3.98438V79.0028H9.29688V61.7656Z" fill="#BFBCCC"/>
<path d="M19.9219 61.7656H14.6094V79.0028H19.9219V61.7656Z" fill="#BFBCCC"/>
<path d="M19.9219 56.4619H1.32812V61.7657H19.9219V56.4619Z" fill="#BFBCCC"/>
<path d="M19.9219 56.4619H15.9375V61.7657H19.9219V56.4619Z" fill="#BFBCCC"/>
<path d="M83.6719 56.4619H65.0781V61.7657H83.6719V56.4619Z" fill="#BFBCCC"/>
<path d="M69.0625 56.4619H65.0781V61.7657H69.0625V56.4619Z" fill="#BFBCCC"/>
<path d="M69.0625 45.8545H15.9375V51.1582H69.0625V45.8545Z" fill="#BFBCCC"/>
<path d="M55.7812 61.7656H29.2188V67.0694H55.7812V61.7656Z" fill="#BFBCCC"/>
<path d="M83.6719 79.0029H1.32812V84.3067H83.6719V79.0029Z" fill="#BFBCCC"/>
<path d="M42.5 3.4248H53.125V11.3804H42.5" fill="#FF809B"/>
<path d="M84.834 63.0915V55.3016H66.2402V52.484H70.2246V44.6941H56.9434V37.8987H60.9277V30.1088H56.9724C56.3738 22.9819 50.8008 17.4181 43.6621 16.8204V12.7059H54.2871V2.26414H43.6621V0.772461H41.1719V16.8204C34.1992 17.4181 28.6262 22.9819 28.0276 30.1088H23.9062V37.8987H27.8906V44.6941H14.6094V52.484H18.5938V55.3016H0V63.0915H2.65625V77.8425H0V85.6324H84.834V77.8425H82.1777V63.0915H84.834ZM82.3438 57.7877V60.6054H66.2402V57.7877H82.3438ZM71.5527 77.8425V63.0915H74.375V77.8425H71.5527ZM66.2402 63.0915H69.0625V77.8425H66.2402V63.0915ZM54.4531 44.6941H51.6309V37.8987H54.4531V44.6941ZM38.5156 37.8987V44.6941H35.6934V37.8987H38.5156ZM41.0059 37.8987H43.8281V44.6941H41.0059V37.8987ZM46.3184 37.8987H49.1406V44.6941H46.3184V37.8987ZM51.7969 4.75027V10.2198H43.6621V4.75027H51.7969ZM42.5 19.3356C48.7163 19.3356 53.8467 23.9764 54.4717 30.1088H30.5281C31.1533 23.9764 36.2837 19.3356 42.5 19.3356ZM26.3965 32.5949H58.4375V35.4126H26.3965V32.5949ZM30.3809 37.8987H33.2031V44.6941H30.3809V37.8987ZM17.0996 47.1803H67.7344V49.9979H17.0996V47.1803ZM63.75 52.484V77.8425H52.959V68.3952H56.9434V60.6054H27.8906V68.3952H31.875V77.8425H21.084V52.484H63.75ZM30.3809 65.9091V63.0915H54.4531V65.9091H30.3809ZM37.1875 68.3952V77.8425H34.3652V68.3952H37.1875ZM39.6777 68.3952H45.1562V77.8425H39.6777V68.3952ZM47.6465 68.3952H50.4688V77.8425H47.6465V68.3952ZM13.2812 63.0915V75.0249H15.7715V63.0915H18.5938V77.8425H10.459V63.0915H13.2812ZM2.49023 57.7877H18.5938V60.6054H2.49023V57.7877ZM5.14648 63.0915H7.96875V77.8425H5.14648V63.0915ZM82.3438 83.1463H2.49023V80.3287H82.3438V83.1463ZM79.6875 77.8425H76.8652V63.0915H79.6875V77.8425Z" fill="black"/>
</svg>
