<svg width="85" height="86" viewBox="0 0 85 86" fill="none" xmlns="http://www.w3.org/2000/svg">
<path d="M69.9194 4.87793V21.3024H64.4355V37.7269H53.4678V4.87793H69.9194Z" fill="#DFB28B"/>
<path d="M69.9194 21.3018H80.8871V37.7263H64.4355V21.3018H69.9194Z" fill="#ECC19C"/>
<path d="M17.8226 37.7267H6.85485L4.11292 10.3525H8.36292C8.99356 13.4732 11.7629 15.8274 15.0807 15.8274C18.3984 15.8274 21.1678 13.4732 21.7984 10.3525H26.0484L24.9516 21.3022H17.8226V37.7267Z" fill="#CCD1D9"/>
<path d="M31.5322 21.3018V37.7263H17.8226V21.3018H24.9516H31.5322Z" fill="#E6E9ED"/>
<path d="M15.0807 2.14062C18.8645 2.14062 21.9355 5.20653 21.9355 8.98417C21.9355 9.44953 21.8944 9.91489 21.7984 10.3529C21.1678 13.4735 18.3984 15.8277 15.0807 15.8277C11.7629 15.8277 8.99357 13.4735 8.36293 10.3529C8.26696 9.91489 8.22583 9.44953 8.22583 8.98417C8.22583 5.20653 11.2968 2.14062 15.0807 2.14062Z" fill="#FF826E"/>
<path d="M31.5323 63.7323V65.101H28.7903H6.85485H4.11292V63.7323L16.4516 54.1514H19.1936L31.5323 63.7323Z" fill="#FCD770"/>
<path d="M6.85486 65.1006H28.7903V78.7877H6.85486V65.1006Z" fill="#E6E9ED"/>
<path d="M12.3387 70.5752H23.3065V78.7874H12.3387V70.5752Z" fill="#B27946"/>
<path d="M85 37.7266V48.6763H47.9839V85.6314H37.0161V48.6763H0V37.7266H6.85484H17.8226H31.5323H37.0161V0.771484H47.9839V37.7266H53.4677H64.4355H80.8871H85Z" fill="#AAB2BD"/>
<path d="M69.9194 70.5757L69.0008 68.3857L72.1403 60.8852C72.4557 60.1187 73.196 59.626 74.0323 59.626C74.8686 59.626 75.6089 60.1187 75.9242 60.8852L82.2581 76.0505H74.0323H65.8065L68.096 70.5757H69.9194Z" fill="#B4DD7F"/>
<path d="M69.0008 68.3859L69.9194 70.5759H68.096H61.6936H53.4678L59.8016 55.4106C60.117 54.6441 60.8573 54.1514 61.6936 54.1514C62.5299 54.1514 63.2702 54.6441 63.5855 55.4106L69.0008 68.3859Z" fill="#A0D468"/>
<path d="M46.4762 85.3824H49.2101V49.9003H84.7507V47.1709H46.4762V85.3824Z" fill="black"/>
<path d="M0 49.9003H35.5406V85.3824H38.2745V47.1709H0V49.9003Z" fill="black"/>
<path d="M35.5406 36.2536H32.8067V19.8772H26.3889L27.4825 8.95966H23.2381C23.2381 4.44388 19.5596 0.771484 15.0364 0.771484C10.5132 0.771484 6.83474 4.44388 6.83474 8.95966H2.59037L5.32426 36.2536H0V38.983H38.2745V0.771484H35.5406V36.2536ZM30.0728 36.2536H19.1373V22.6066H30.0728V36.2536ZM15.0364 3.50087C18.0519 3.50087 20.5042 5.94914 20.5042 8.95966C20.5042 11.9702 18.0519 14.4184 15.0364 14.4184C12.0209 14.4184 9.56863 11.9702 9.56863 8.95966C9.56863 5.94914 12.0209 3.50087 15.0364 3.50087ZM5.61132 11.689H7.31317C8.44227 14.8647 11.4728 17.1478 15.0364 17.1478C18.6001 17.1478 21.6306 14.8647 22.7597 11.689H24.4615L23.6414 19.8772H16.4034V36.2536H8.07182L5.61132 11.689Z" fill="black"/>
<path d="M82.0168 36.2536V19.8772H71.0812V3.50087H51.944V36.2536H49.2101V0.771484H46.4762V38.983H84.7507V36.2536H82.0168ZM79.2829 36.2536H65.6135V22.6066H79.2829V36.2536ZM54.6779 6.23027H68.3474V19.8772H62.8796V36.2536H54.6779V6.23027Z" fill="black"/>
<path d="M15.9345 52.6299L2.73389 62.8801V66.2768H5.46778V79.9238H30.0728V66.2768H32.8067V62.8801L19.6061 52.6299H15.9345ZM21.8711 77.1944H13.6695V71.7356H21.8711V77.1944ZM27.3389 77.1944H24.605V69.0062H10.9356V77.1944H8.20168V66.2768H27.3389V77.1944ZM6.32759 63.5474L16.8722 55.3593H18.667L29.2117 63.5474H6.32759Z" fill="black"/>
<path d="M13.6694 13.0534H16.4033V10.324H19.1372V7.59462H16.4033V4.86523H13.6694V7.59462H10.9355V10.324H13.6694V13.0534Z" fill="black"/>
<path d="M21.8712 25.3359H27.3389V28.0653H21.8712V25.3359Z" fill="black"/>
<path d="M21.8712 30.7949H27.3389V33.5243H21.8712V30.7949Z" fill="black"/>
<path d="M10.9355 25.3359H13.6694V28.0653H10.9355V25.3359Z" fill="black"/>
<path d="M10.9355 19.877H13.6694V22.6063H10.9355V19.877Z" fill="black"/>
<path d="M10.9355 30.7949H13.6694V33.5243H10.9355V30.7949Z" fill="black"/>
<path d="M75.1821 77.1944H84.0672L76.97 60.1876C76.4369 58.9129 75.1985 58.0887 73.8151 58.0887C72.4318 58.0887 71.1933 58.9129 70.6602 60.1876L68.8025 64.6392L64.6662 54.7288C64.1344 53.4542 62.896 52.6299 61.5126 52.6299C60.1293 52.6299 58.8908 53.4542 58.3577 54.7288L51.2605 71.7356H60.1457V82.6532H51.944V85.3826H84.7507V82.6532H75.1821V77.1944ZM73.1836 61.2384C73.3968 60.7293 74.2334 60.7293 74.4467 61.2384L79.9664 74.465H67.6639L68.8025 71.7356H71.7647L70.2843 68.1888L73.1836 61.2384ZM60.8811 55.7796C61.0943 55.2706 61.9309 55.2706 62.1441 55.7796L67.6639 69.0062H55.3613L60.8811 55.7796ZM62.8796 71.7356H65.8417L63.563 77.1944H72.4482V82.6532H62.8796V71.7356Z" fill="black"/>
<path d="M68.3474 30.7949H71.0812V33.5243H68.3474V30.7949Z" fill="black"/>
<path d="M68.3474 25.3359H71.0812V28.0653H68.3474V25.3359Z" fill="black"/>
<path d="M73.8152 30.7949H76.5491V33.5243H73.8152V30.7949Z" fill="black"/>
<path d="M73.8152 25.3359H76.5491V28.0653H73.8152V25.3359Z" fill="black"/>
<path d="M57.4118 8.95996H60.1457V11.6894H57.4118V8.95996Z" fill="black"/>
<path d="M62.8796 8.95996H65.6135V11.6894H62.8796V8.95996Z" fill="black"/>
<path d="M57.4118 14.418H60.1457V17.1474H57.4118V14.418Z" fill="black"/>
<path d="M62.8796 14.418H65.6135V17.1474H62.8796V14.418Z" fill="black"/>
<path d="M57.4118 30.7949H60.1457V33.5243H57.4118V30.7949Z" fill="black"/>
<path d="M57.4118 19.877H60.1457V22.6063H57.4118V19.877Z" fill="black"/>
<path d="M57.4118 25.3359H60.1457V28.0653H57.4118V25.3359Z" fill="black"/>
</svg>
