<svg width="85" height="86" viewBox="0 0 85 86" fill="none" xmlns="http://www.w3.org/2000/svg">
<g clip-path="url(#clip0)">
<path d="M42.5 0.774414C19.0655 0.774414 0 19.8077 0 43.2021C0 66.597 19.0655 85.63 42.5 85.63C65.9345 85.63 85 66.597 85 43.2021C85 19.8077 65.9345 0.774414 42.5 0.774414ZM42.5 77.9157C23.3263 77.9157 7.72727 62.3434 7.72727 43.2024C7.72727 24.0613 23.3263 8.48896 42.5 8.48896C61.6737 8.48896 77.2727 24.0613 77.2727 43.2021C77.2727 62.3437 61.6737 77.9157 42.5 77.9157Z" fill="white"/>
<path d="M42.5 34.2041C40.3662 34.2041 38.6364 35.9311 38.6364 38.0614V63.7721C38.6364 65.9024 40.3662 67.6294 42.5 67.6294C44.6337 67.6294 46.3636 65.9024 46.3636 63.7721V38.0614C46.3636 35.9314 44.6337 34.2041 42.5 34.2041Z" fill="white"/>
<path d="M42.5 18.7754C41.4826 18.7754 40.4881 19.1868 39.7671 19.9043C39.0485 20.6217 38.6364 21.6169 38.6364 22.6327C38.6364 23.6484 39.0485 24.641 39.7671 25.361C40.4857 26.0785 41.4826 26.4899 42.5 26.4899C43.5174 26.4899 44.5117 26.0785 45.2326 25.361C45.9512 24.641 46.3636 23.6484 46.3636 22.6327C46.3636 21.6169 45.9512 20.6217 45.2326 19.9043C44.5117 19.1866 43.5174 18.7754 42.5 18.7754Z" fill="white"/>
</g>
<defs>
<clipPath id="clip0">
<rect width="85" height="84.86" fill="white" transform="translate(0 0.772461)"/>
</clipPath>
</defs>
</svg>
